<mxfile host="app.diagrams.net" modified="2023-10-23T06:26:56.201Z" agent="Mozilla/5.0 (Windows NT 10.0; Win64; x64) AppleWebKit/537.36 (KHTML, like Gecko) Chrome/118.0.0.0 Safari/537.36" version="22.0.6" etag="U3WKu86j7a1lAx5MbbJU" type="github">
  <diagram name="第 1 页" id="iwkyIrOJmJdWY-51S9c6">
    <mxGraphModel>
      <root>
        <mxCell id="0" />
        <mxCell id="1" parent="0" />
      </root>
    </mxGraphModel>
  </diagram>
</mxfile>
